# xmcd
#
# Track frame offsets:
#	150
#	6618
#	31259
#	46728
#	69294
#	89998
#	100097
#	130646
#	157969
#	186850
#	226126
#	251464
#	267280
#	289108
#	306922
#	324641
#
# Disc length: 4580 seconds
#
# Revision: 1
# Processed by: cddbd v1.5.1PL2 Copyright (c) Steve Scherf et al.
# Submitted via: EasyCDDAExtractor 9.0.0.1
#
DISCID=d611e210
DTITLE=Guns and Roses - POPB Paris 20-06-06 Disc 1
DYEAR=2006
DGENRE=Hard Rock
TTITLE0=Intro
TTITLE1=Welcome To The Jungle
TTITLE2=It's So Easy
TTITLE3=Mr Brownstone
TTITLE4=Live And Let Die
TTITLE5=Robin Solo
TTITLE6=Sweet Child O'Mine
TTITLE7=Madagascar
TTITLE8=You Could Be Mine
TTITLE9=Knockin' On Heavens Door
TTITLE10=Jam
TTITLE11=Dizzy Solo
TTITLE12=The Blues
TTITLE13=Jam/ Band Introductions
TTITLE14=Richard Solo
TTITLE15=Richard And Robin Solo [w/ Beautiful]
EXTD=
EXTT0=
EXTT1=
EXTT2=
EXTT3=
EXTT4=
EXTT5=
EXTT6=
EXTT7=
EXTT8=
EXTT9=
EXTT10=
EXTT11=
EXTT12=
EXTT13=
EXTT14=
EXTT15=
PLAYORDER=
